<svg width="600" height="363" viewBox="0 0 600 363" fill="none" xmlns="http://www.w3.org/2000/svg">
<path d="M3.4674 194.556C4.773 188.071 11.1084 182.892 17.5722 182.892C24.036 182.892 28.0812 188.071 26.6472 194.556C25.9195 197.874 23.9076 200.892 21.1679 203.054L4.32352 216.88L0 211.401L7.76942 204.916C4.32349 203.054 2.44002 199.008 3.44597 194.556H3.4674Z" fill="#1E1E1E"/>
<path d="M67.2708 256.048H98.0916L92.484 282.396H19.6055L23.6294 261.506L78.6574 215.853V215.703C80.391 214.397 81.8251 212.813 82.831 211.101C83.837 209.517 84.5647 207.655 84.9928 205.622C85.8489 201.727 84.9928 198.131 82.9809 195.541C80.969 192.951 77.8013 191.367 73.756 191.367C71.1662 191.367 68.5764 192.095 66.2649 193.229C64.8308 193.957 63.3754 194.963 62.241 195.969L58.9235 211.529H32.576L37.4773 188.628L39.9174 185.31C44.8187 178.975 51.1541 173.924 57.9175 170.478C64.8308 166.882 72.1721 164.998 79.3851 164.998C90.6218 164.998 99.8467 169.6 105.604 176.941C111.362 184.283 113.802 194.364 111.362 205.6C110.206 210.93 108.044 216.11 105.026 221.161C101.859 226.062 97.9632 230.664 93.3615 234.409V234.26L67.2922 256.005L67.2708 256.048Z" fill="#1E1E1E"/>
<path d="M119.688 279.678C114.358 276.21 110.334 271.031 108.023 264.845L106.867 261.527L110.463 244.533H136.81L134.798 254.036C135.526 255.192 136.532 256.198 137.688 256.926C139.55 258.082 141.862 258.788 144.451 258.788H144.601C148.497 258.788 152.371 257.204 155.41 254.614C158.578 252.024 160.889 248.557 161.745 244.533C162.601 240.638 161.745 237.042 159.733 234.602C157.721 232.012 154.404 230.428 150.508 230.428C149.203 230.428 147.919 230.578 146.763 230.856C145.457 231.135 144.173 231.584 143.017 232.29L133.215 237.342L115.792 215.168L133.942 167.781H198.324L192.716 194.128H150.508L146.335 205.215C149.652 204.359 152.948 204.06 156.138 204.06C167.374 204.06 176.449 208.533 182.357 215.874C188.114 223.215 190.426 233.446 188.114 244.533C185.674 255.77 179.039 265.851 170.114 273.192C161.339 280.534 150.38 285.007 139.015 285.157H138.587C131.524 285.157 125.06 283.145 119.709 279.678H119.688Z" fill="#1E1E1E"/>
<path d="M190.661 271.972C188.906 275.846 186.787 279.335 184.433 282.567H188.97L191.86 268.976C191.453 269.982 191.111 270.988 190.661 271.972Z" fill="#1E1E1E"/>
<path d="M196.697 248.279C196.119 255.599 194.471 262.79 191.475 269.96L188.778 282.567H208.64L215.939 248.3H196.676L196.697 248.279Z" fill="#1E1E1E"/>
<path d="M235.608 248.279L228.31 282.546H208.447L215.746 248.279H235.608Z" fill="#1E1E1E"/>
<path d="M255.278 248.279L247.979 282.546H228.117L235.416 248.279H255.278Z" fill="#1E1E1E"/>
<path d="M255.107 248.279H330.211C333.593 248.279 336.76 246.973 339.393 244.918C341.833 242.864 343.888 239.867 344.637 236.486C344.829 235.373 344.829 234.238 344.829 233.296H270.282L272.893 199.586C291.257 194.899 308.85 187.044 324.967 176.364C341.255 165.683 355.874 152.392 368.052 136.853L393.907 153.89C380.423 171.12 364.307 186.487 346.52 199.03H368.245L372.183 204.081C375.565 208.212 377.812 213.456 378.925 219.063C380.038 224.692 380.038 230.493 378.732 236.486C376.121 249.221 368.437 260.843 358.314 269.083C348.19 277.516 335.647 282.567 322.912 282.567H247.808L255.107 248.3V248.279Z" fill="#1E1E1E"/>
<path d="M427.618 244.169L435.858 248.471H436.243L428.945 282.567H421.068L388.663 266.086L411.886 156.887H446.153L427.618 244.169Z" fill="#1E1E1E"/>
<path d="M454.393 215.703L483.245 203.524L490.736 201.834C501.973 201.834 511.155 206.328 516.763 213.627C522.563 220.925 525.003 231.049 522.563 242.286C522.178 244.341 521.45 246.417 520.872 248.279H527.421C528.534 247.166 529.476 245.668 530.418 244.341C532.473 240.959 533.971 237.406 534.72 233.489C535.833 228.245 535.469 223.194 533.778 219.063C532.087 214.569 529.091 211.016 524.981 208.576L524.425 208.212L507.388 197.168L530.61 167.567L547.091 178.418C556.08 183.662 563.015 191.539 566.761 201.277C570.506 210.823 571.448 221.889 569.008 233.489C567.317 241.729 563.957 249.777 559.077 257.268C554.39 264.952 548.397 271.887 541.462 277.494L535.276 282.546H428.709L436.008 248.279H447.437L454.372 215.682L454.393 215.703ZM485.856 236.678L483.994 237.427L481.554 248.279C483.052 248.086 484.55 247.53 485.685 246.588C486.99 245.475 487.932 243.977 488.296 242.286C488.681 240.595 488.296 238.926 487.547 237.791V237.984C486.99 237.427 486.605 236.871 485.856 236.678Z" fill="#1E1E1E"/>
<path d="M48.3929 114.444C41.2656 105.647 38.4618 93.4684 41.2656 79.9843C44.2621 66.5002 52.3098 54.3217 62.99 45.5249C73.6703 36.7281 86.9618 31.2917 100.446 31.2917C106.803 31.2917 112.817 32.5973 118.232 35.0373C123.669 37.4772 128.163 41.0302 131.909 45.5249L135.847 50.5761L122.727 112.196L87.133 127.179L79.6418 128.677C66.3504 128.677 55.2848 123.24 48.3715 114.444H48.3929ZM84.1793 94.2175L93.1687 90.2793L98.2199 66.3076C96.7217 65.7511 95.0308 65.3658 93.1687 65.3658C89.2305 65.3658 85.121 67.0567 81.9319 69.6679C78.7428 72.3005 76.4955 75.8535 75.5751 79.9629C74.826 83.9011 75.5752 87.6467 77.6299 90.2579C79.1282 92.1414 81.3755 93.6396 84.1793 94.1961V94.2175ZM89.787 24.9135C82.8523 24.9135 78.3576 19.3058 79.8558 12.5424C81.3541 5.60768 88.2888 0 95.0308 0C100.831 0 104.769 3.74558 105.155 8.9894C107.766 3.74558 113.395 0 119.195 0C125.937 0 130.432 5.62908 128.934 12.5424C127.436 19.2844 120.693 24.9135 113.759 24.9135C108.151 24.9135 104.02 21.1679 103.635 15.9241C101.024 21.1679 95.3947 24.9135 89.7656 24.9135H89.787Z" fill="#1E1E1E"/>
<path d="M198.623 87.2828L203.118 66.3076C201.62 65.7511 199.929 65.3658 198.067 65.3658C196.012 65.3658 194.128 66.3076 192.459 67.4205C190.961 68.7261 189.826 70.6096 189.27 72.6644L183.084 101.88C180.644 113.673 175.786 125.103 169.044 135.975C162.302 146.656 153.676 156.587 143.574 164.827L124.653 140.663C131.031 135.419 136.275 129.426 140.384 123.048C144.323 116.498 147.319 109.178 149.01 101.88L155.196 72.6644C157.636 61.235 164.378 50.7473 173.56 43.2561C182.549 35.765 193.978 31.2703 205.408 31.2703C211.786 31.2703 217.779 32.5759 223.194 35.0159C228.63 37.4559 233.318 41.0088 236.871 45.5035L240.809 50.5547L232.933 87.2615C232.569 89.3162 232.933 91.007 233.874 92.3126C235.009 93.6182 236.678 94.3673 238.562 94.3673L231.263 128.634C219.834 128.634 210.481 123.947 204.659 116.456C198.666 108.964 196.226 98.6694 198.666 87.24L198.623 87.2828ZM187.579 163.907C180.644 163.907 176.149 158.278 177.648 151.364C179.146 144.43 185.888 138.822 192.823 138.822C198.43 138.822 202.561 142.76 202.946 148.004C205.558 142.76 211.187 138.822 216.816 138.822C223.751 138.822 228.245 144.43 226.747 151.364C225.249 158.299 218.507 163.907 211.572 163.907C205.964 163.907 201.834 159.969 201.448 154.725C198.816 159.969 193.208 163.907 187.579 163.907Z" fill="#1E1E1E"/>
<path d="M258.188 94.4102L250.89 128.677H231.028L238.326 94.4102H258.188Z" fill="#1E1E1E"/>
<path d="M277.858 94.4102L270.56 128.677H250.697L257.996 94.4102H277.858Z" fill="#1E1E1E"/>
<path d="M297.528 94.4102L290.229 128.677H270.367L277.665 94.4102H297.528Z" fill="#1E1E1E"/>
<path d="M317.198 94.4102L309.899 128.677H290.037L297.335 94.4102H317.198Z" fill="#1E1E1E"/>
<path d="M336.867 94.4102L329.569 128.677H309.706L317.005 94.4102H336.867Z" fill="#1E1E1E"/>
<path d="M456.726 122.513L449.427 128.698H329.376L336.675 94.4316H347.719L367.196 3.03928H401.463L392.088 46.8733L408.205 38.6331C412.892 36.1931 417.751 34.331 422.438 33.1966C427.318 31.891 431.984 31.3131 436.864 31.3131C451.653 31.3131 464.025 37.306 471.708 47.0446C479.392 56.9757 482.581 70.4598 479.392 85.4422C479.2 86.3839 479.028 87.4969 478.643 88.4386C478.643 89.9369 479.007 91.4351 479.949 92.3769C480.89 93.6825 482.56 94.4316 484.443 94.4316L477.316 128.698C469.268 128.698 462.334 126.451 456.705 122.513H456.726ZM382.007 94.4102H441.187C441.551 94.0463 441.744 93.4684 442.129 93.1046C443.627 90.6646 444.74 88.0534 445.318 85.4208C446.452 79.8131 445.318 74.9331 442.322 71.1875C439.518 67.6346 435.023 65.3872 429.587 65.3872C427.703 65.3872 426.034 65.5798 424.15 66.1363C422.267 66.5216 420.597 67.2707 418.906 68.0198L383.89 86.1913L382.007 94.4316V94.4102Z" fill="#1E1E1E"/>
<path d="M522.862 128.677H477.166L484.465 94.4102H495.894L515.371 3.01788H549.467L522.862 128.698V128.677Z" fill="#1E1E1E"/>
<path d="M578.853 107.53C579.046 110.163 579.41 112.582 580.352 115.022L547.198 132.059C545.314 127.007 544.201 121.764 543.816 116.327C543.624 110.891 544.009 105.283 545.314 99.4614L565.733 2.99646H600L579.389 99.4614C578.832 102.265 578.64 104.898 578.832 107.509L578.853 107.53Z" fill="#1E1E1E"/>
<path d="M28.4236 345.942C26.0907 345.643 24.25 344.508 22.9016 342.539C22.0669 341.276 21.489 339.864 21.1893 338.366C20.8897 336.846 20.8897 335.241 21.2535 333.593C21.7672 331.131 22.7732 329.226 24.25 327.856C25.7482 326.422 27.5461 325.695 29.6436 325.695C30.9064 325.695 31.998 325.909 32.9183 326.315C36.5783 327.664 39.1681 329.654 40.6878 332.223C41.6295 333.871 42.1432 335.476 42.2502 337.038C42.3786 338.601 42.0576 340.078 41.3085 341.405C40.4309 342.924 39.1253 344.08 37.3488 344.915C35.6794 345.75 33.6889 346.156 31.4201 346.156C30.6924 346.156 30.2857 346.135 30.2643 346.092H29.9861L29.4724 346.049L28.9587 345.985L28.4236 345.921V345.942ZM24.1216 320.258L23.8433 320.044C23.4153 319.638 23.2012 319.21 23.1584 318.696V318.525C23.1584 318.032 23.3297 317.604 23.6507 317.198C23.9504 316.791 24.3998 316.598 24.9991 316.577C25.4486 316.577 25.8981 316.705 26.2619 316.984L26.904 317.476L27.5033 317.989L28.5092 318.781C28.9373 319.081 29.2156 319.509 29.3226 320.044V320.387C29.344 320.836 29.1942 321.286 28.8731 321.692C28.5093 322.12 28.0384 322.334 27.4177 322.334C26.904 322.334 26.2833 322.035 25.5984 321.457L24.1002 320.237L24.1216 320.258ZM29.8362 342.111H30.2858L30.7138 342.197C32.6829 342.282 34.1811 342.068 35.1871 341.576C36.4499 341.062 37.3702 340.356 37.8839 339.436C38.6758 338.002 38.4832 336.247 37.2632 334.213C36.2144 332.458 34.2881 331.046 31.5057 329.997C30.9278 329.761 30.3071 329.654 29.6436 329.654C28.4878 329.654 27.4819 330.147 26.6472 331.11C25.9195 331.944 25.4058 333.057 25.1061 334.47C24.8921 335.176 24.8921 336.204 25.0847 337.574C25.2773 338.601 25.6626 339.5 26.1763 340.292C26.8826 341.298 27.8029 341.897 28.9587 342.047L29.8577 342.132L29.8362 342.111ZM30.778 320.515L30.2643 320.066C29.8363 319.702 29.6222 319.274 29.5794 318.76V318.589C29.5794 318.011 29.7506 317.583 30.0931 317.24C30.4569 316.855 30.885 316.662 31.4415 316.641C31.9552 316.641 32.4689 316.834 32.9825 317.24L34.331 318.375L34.8233 318.76C35.2513 319.145 35.5082 319.573 35.5724 320.066V320.387C35.5938 320.836 35.4011 321.286 35.0587 321.692C34.6734 322.099 34.1812 322.292 33.6247 322.292C33.2822 322.292 32.8755 322.163 32.4689 321.906L30.7566 320.536L30.778 320.515Z" fill="#1E1E1E"/>
<path d="M52.374 348.404C52.374 349.495 52.374 350.03 52.3526 350.052C52.3312 350.287 52.2884 350.63 52.267 351.036C52.2028 351.55 52.16 352.085 52.0744 352.684C51.7105 354.803 50.94 356.644 49.72 358.206C48.714 359.469 47.3656 360.454 45.6105 361.16C44.0909 361.845 42.3144 362.187 40.2169 362.187C38.6759 362.187 36.9636 361.866 35.1443 361.203C34.6306 360.967 34.2668 360.582 34.0956 360.111C33.8601 359.598 33.8601 359.084 34.0956 358.57C34.331 358.056 34.6948 357.735 35.1871 357.543C35.6794 357.35 36.1931 357.35 36.7068 357.543C38.098 358.271 39.9387 358.442 42.2288 358.057C44.1979 357.671 45.6962 356.901 46.6379 355.724C47.4512 354.696 47.9863 353.391 48.2432 351.807C48.4144 349.966 48.4786 348.361 48.4572 347.012V345.878V344.679V343.952L48.5214 343.652V343.267L48.5856 342.817V342.368L48.6713 341.876L48.714 341.426V341.255L48.7782 341.041L48.8425 340.741V340.442C49.0137 339.457 49.2063 338.772 49.4203 338.323C49.9982 336.675 50.9186 335.433 52.2456 334.641C53.5084 333.849 54.814 333.55 56.0982 333.785C57.4466 333.978 58.5382 334.598 59.3729 335.669C59.801 336.204 60.1221 336.803 60.3789 337.488C60.5715 337.809 60.6785 338.13 60.7427 338.472L60.9782 339.371C61.342 340.698 61.6631 341.512 61.9199 341.79C62.2196 342.132 62.669 342.325 63.2897 342.325C63.8676 342.325 64.3171 342.518 64.6809 342.924C65.0876 343.267 65.2802 343.738 65.2802 344.316C65.2802 344.893 65.0876 345.322 64.6809 345.728C64.2957 346.113 63.8462 346.306 63.2897 346.306C61.3634 346.306 59.8438 345.6 58.7736 344.187C58.4312 343.78 58.0673 343.074 57.6821 342.132L57.4466 341.405L57.3182 340.912L57.1898 340.506C56.8687 339.371 56.5691 338.579 56.2694 338.13C56.0554 337.83 55.7558 337.702 55.4133 337.702C55.0708 337.702 54.707 337.809 54.3646 338.044C53.7867 338.408 53.3585 339.029 53.1017 339.906C52.9947 340.185 52.8877 340.634 52.8021 341.298L52.6951 342.09L52.588 342.817C52.481 344.893 52.4168 346.306 52.4596 347.034V348.446L52.374 348.404Z" fill="#1E1E1E"/>
<path d="M71.5727 342.304C72.0864 342.304 72.5573 342.496 72.9426 342.903C73.3278 343.288 73.5204 343.738 73.5204 344.294C73.5204 344.851 73.3278 345.3 72.9426 345.664C72.5359 346.071 72.0864 346.263 71.5727 346.263H63.3324C62.7973 346.263 62.3265 346.071 61.9199 345.664C61.5346 345.279 61.3419 344.829 61.3419 344.294C61.3419 343.759 61.5346 343.288 61.9199 342.903C62.3265 342.496 62.7973 342.304 63.3324 342.304H71.5727Z" fill="#1E1E1E"/>
<path d="M79.8558 342.304C80.3695 342.304 80.8404 342.496 81.2256 342.903C81.6109 343.288 81.8035 343.738 81.8035 344.294C81.8035 344.851 81.6109 345.3 81.2256 345.664C80.819 346.071 80.3695 346.263 79.8558 346.263H71.6156C71.0805 346.263 70.6096 346.071 70.2029 345.664C69.8177 345.279 69.625 344.829 69.625 344.294C69.625 343.759 69.8177 343.288 70.2029 342.903C70.6096 342.496 71.0805 342.304 71.6156 342.304H79.8558Z" fill="#1E1E1E"/>
<path d="M88.1176 342.304C88.6313 342.304 89.1021 342.496 89.4874 342.903C89.8726 343.288 90.0653 343.738 90.0653 344.294C90.0653 344.851 89.8726 345.3 89.4874 345.664C89.0807 346.071 88.6313 346.263 88.1176 346.263H79.8773C79.3422 346.263 78.8713 346.071 78.4646 345.664C78.0794 345.279 77.8868 344.829 77.8868 344.294C77.8868 343.759 78.0794 343.288 78.4646 342.903C78.8713 342.496 79.3422 342.304 79.8773 342.304H88.1176Z" fill="#1E1E1E"/>
<path d="M96.4007 342.304C96.9144 342.304 97.3853 342.496 97.7706 342.903C98.1558 343.288 98.3484 343.738 98.3484 344.294C98.3484 344.851 98.1558 345.3 97.7706 345.664C97.3639 346.071 96.9144 346.263 96.4007 346.263H88.1604C87.6253 346.263 87.1545 346.071 86.7478 345.664C86.3625 345.279 86.1699 344.829 86.1699 344.294C86.1699 343.759 86.3625 343.288 86.7478 342.903C87.1545 342.496 87.6253 342.304 88.1604 342.304H96.4007Z" fill="#1E1E1E"/>
<path d="M104.684 342.304C105.197 342.304 105.668 342.496 106.054 342.903C106.439 343.288 106.632 343.738 106.632 344.294C106.632 344.851 106.439 345.3 106.054 345.664C105.647 346.071 105.197 346.263 104.684 346.263H96.4435C95.9084 346.263 95.4376 346.071 95.0309 345.664C94.6457 345.279 94.453 344.829 94.453 344.294C94.453 343.759 94.6457 343.288 95.0309 342.903C95.4376 342.496 95.9084 342.304 96.4435 342.304H104.684Z" fill="#1E1E1E"/>
<path d="M112.967 342.304C113.481 342.304 113.951 342.496 114.337 342.903C114.722 343.288 114.915 343.738 114.915 344.294C114.915 344.851 114.722 345.3 114.337 345.664C113.93 346.071 113.481 346.263 112.967 346.263H104.727C104.192 346.263 103.721 346.071 103.314 345.664C102.929 345.279 102.736 344.829 102.736 344.294C102.736 343.759 102.929 343.288 103.314 342.903C103.721 342.496 104.192 342.304 104.727 342.304H112.967Z" fill="#1E1E1E"/>
<path d="M128.827 345.664C128.42 346.071 127.949 346.263 127.436 346.263C125.809 346.263 124.268 345.857 122.77 345.022C121.271 344.016 120.351 343.074 119.944 342.24C120.073 342.047 119.752 342.411 118.96 343.331C117.098 345.279 115.043 346.263 112.796 346.285C112.261 346.285 111.79 346.092 111.383 345.685C110.998 345.3 110.805 344.851 110.805 344.316C110.805 343.781 110.998 343.31 111.383 342.903C111.79 342.518 112.282 342.325 112.796 342.325C113.909 342.325 115.022 341.747 116.07 340.656C117.333 339.222 117.847 336.482 117.569 332.48C117.547 332.03 117.697 331.581 117.997 331.131C118.361 330.682 118.789 330.425 119.302 330.403C119.752 330.318 120.223 330.468 120.715 330.746C121.122 331.046 121.357 331.431 121.507 331.945L121.635 332.736L121.764 333.55L121.892 334.342L121.999 335.091C122.235 336.632 122.427 337.745 122.62 338.43C122.898 339.371 123.262 340.099 123.733 340.613C124.246 341.191 124.846 341.619 125.509 341.876C126.087 342.175 126.729 342.325 127.414 342.325C127.928 342.325 128.399 342.518 128.805 342.903C129.191 343.31 129.383 343.781 129.383 344.316C129.383 344.851 129.191 345.322 128.805 345.685L128.827 345.664ZM115.407 353.412L115.129 353.198C114.701 352.791 114.487 352.363 114.444 351.85V351.678C114.444 351.186 114.615 350.758 114.936 350.351C115.236 349.945 115.685 349.752 116.284 349.731C116.734 349.731 117.183 349.859 117.547 350.137L118.189 350.63L118.789 351.143L119.795 351.935C120.223 352.235 120.501 352.663 120.608 353.198V353.562C120.629 354.011 120.479 354.461 120.158 354.867C119.795 355.296 119.324 355.51 118.703 355.51C118.189 355.51 117.569 355.21 116.884 354.653L115.385 353.433L115.407 353.412ZM122.063 353.647L121.55 353.198C121.122 352.856 120.908 352.406 120.865 351.892V351.721C120.865 351.143 121.036 350.715 121.378 350.373C121.742 349.988 122.17 349.795 122.727 349.773C123.24 349.773 123.754 349.966 124.268 350.373L125.616 351.507L126.109 351.892C126.537 352.278 126.793 352.706 126.858 353.198V353.519C126.879 353.969 126.686 354.418 126.344 354.825C125.959 355.231 125.466 355.424 124.91 355.424C124.568 355.424 124.161 355.296 123.754 355.039L122.042 353.647H122.063Z" fill="#1E1E1E"/>
<path d="M142.311 328.199C144.066 327.407 145.949 327 147.919 326.979C149.888 326.957 151.686 327.3 153.227 328.07C156.009 329.419 158.214 331.067 159.797 333.057C161.809 335.476 162.473 337.98 161.852 340.634C161.617 341.576 161.403 342.068 161.253 342.154C161.767 342.261 162.815 342.325 164.399 342.325C164.934 342.325 165.405 342.518 165.812 342.924C166.197 343.31 166.39 343.759 166.39 344.316C166.39 344.872 166.197 345.321 165.812 345.728C165.405 346.113 164.956 346.306 164.399 346.306C161.831 346.306 158.513 345.771 154.489 344.701C151.108 345.279 144.986 345.728 136.19 346.028C136.168 346.049 135.826 346.049 135.184 346.049H134.199L133.364 346.092H132.572L132.037 346.156H131.502C131.502 346.156 131.395 346.178 131.374 346.22H130.882C130.004 346.242 129.362 346.285 128.955 346.306H127.179C126.644 346.306 126.173 346.113 125.809 345.728C125.402 345.321 125.21 344.872 125.21 344.316C125.21 343.738 125.402 343.288 125.809 342.924C126.151 342.518 126.622 342.325 127.179 342.325H128.912C128.912 342.325 128.805 342.325 128.827 342.304H129.704L129.64 342.282L130.047 341.576L130.154 341.405L130.261 341.191L130.56 340.741L130.646 340.613L130.732 340.484L130.903 340.185C130.989 340.056 131.096 339.885 131.181 339.735C131.267 339.628 131.352 339.5 131.417 339.35C131.609 339.05 131.716 338.836 131.759 338.751L132.273 337.937L132.786 337.145L132.979 336.846L133.086 336.675L133.193 336.503L133.407 336.182L133.643 335.861C135.162 333.721 136.596 332.094 137.923 331.024C137.945 331.045 137.945 330.896 137.923 330.596L137.645 327.493L137.345 324.325C137.26 323.212 137.153 322.078 137.024 320.965C137.003 320.536 136.939 320.023 136.853 319.423L136.789 318.632L136.746 317.947C136.511 316.598 136.275 315.293 136.061 314.051C135.89 313.067 135.74 312.146 135.612 311.312C135.483 310.584 135.376 310.049 135.291 309.642C135.269 309.535 135.226 309.407 135.205 309.214V309.128L135.184 309.021C135.098 308.422 135.205 307.93 135.569 307.523C135.868 307.095 136.297 306.817 136.874 306.731C137.452 306.646 137.923 306.796 138.33 307.117C138.758 307.459 139.015 307.866 139.079 308.379C139.935 311.419 140.813 318.118 141.712 328.498L141.284 328.713L141.626 328.52H141.712V328.456L141.84 328.37H142.011L142.14 328.284L142.311 328.199ZM136.339 342.004H137.324L137.559 341.983H138.266L138.972 341.918H139.207C139.336 341.918 139.443 341.918 139.507 341.897H139.721L139.935 341.876L141.241 341.811H142.461L143.06 341.747H143.745L144.259 341.683H144.708C148.175 341.405 151.15 341.148 153.633 340.827L154.639 340.634C156.715 340.27 157.85 339.928 158.085 339.585C158.428 338.066 157.85 336.525 156.244 334.919C154.982 333.592 153.398 332.48 151.536 331.581C150.187 331.11 149.053 330.874 148.09 330.874C146.656 330.874 145.243 331.174 143.916 331.773C141.84 332.672 139.914 334.192 138.159 336.375C137.067 337.638 135.804 339.543 134.306 342.068H134.392C134.52 342.068 134.627 342.068 134.691 342.047H135.89L136.339 342.004Z" fill="#1E1E1E"/>
<path d="M172.789 337.017C172.789 337.937 172.789 338.408 172.768 338.43C172.703 339.692 172.575 340.656 172.34 341.319C171.933 343.138 170.906 344.487 169.3 345.322C168.487 345.771 167.545 346.049 166.432 346.178H165.64L165.02 346.199C164.827 346.22 164.677 346.22 164.527 346.22H163.735C163.136 346.22 162.687 346.028 162.323 345.621C161.938 345.279 161.745 344.808 161.745 344.251C161.745 343.695 161.938 343.245 162.323 342.839C162.708 342.454 163.158 342.261 163.735 342.261H164.014C165.341 342.261 166.133 342.239 166.411 342.175C166.796 342.111 167.117 342.004 167.396 341.833C168.016 341.469 168.444 340.698 168.658 339.5L168.787 337.959L168.851 336.76V335.219C168.83 333.871 168.637 329.975 168.273 323.49C167.866 317.176 167.438 312.082 167.032 308.187C166.946 307.759 167.096 307.266 167.417 306.753C167.759 306.303 168.23 306.046 168.765 306.025C169.279 305.939 169.771 306.089 170.199 306.432C170.606 306.774 170.841 307.224 170.927 307.737C171.355 311.397 171.783 316.555 172.19 323.298C172.575 329.333 172.768 333.293 172.768 335.219V336.974L172.789 337.017Z" fill="#1E1E1E"/>
<path d="M179.574 346.52C179.039 346.52 178.568 346.327 178.183 345.942C177.776 345.578 177.583 345.129 177.583 344.551C177.519 337.681 177.198 330.232 176.599 322.249L176.513 320.622L176.406 318.995L176.342 318.097L176.299 317.219V316.791L176.235 316.341V315.999L176.171 315.678L176.064 313.773L175.978 312.168C175.978 312.168 175.957 311.932 175.957 311.483V310.969L175.893 310.52V310.07C175.828 309.385 175.807 308.914 175.786 308.572C175.764 307.994 175.914 307.523 176.299 307.117C176.642 306.71 177.113 306.496 177.669 306.474C178.226 306.453 178.696 306.646 179.103 306.988C179.51 307.352 179.702 307.801 179.724 308.379C179.767 309.385 179.831 310.434 179.895 311.568V312.168L179.959 312.596V312.895C179.959 312.895 180.023 313.131 180.023 313.602V314.201L180.323 318.781L180.43 320.429L180.516 322.035C181.136 329.697 181.457 337.188 181.522 344.551C181.522 345.086 181.329 345.557 180.944 345.942C180.58 346.349 180.13 346.542 179.553 346.542H179.531L179.574 346.52Z" fill="#1E1E1E"/>
<path d="M216.302 358.014C218.614 357.8 220.476 357.093 221.953 355.873C223.515 354.632 224.671 352.984 225.399 350.951C226.34 348.254 226.49 345.407 225.784 342.389C225.099 339.329 223.751 336.782 221.76 334.813C221.375 334.427 221.182 333.978 221.182 333.421C221.182 332.865 221.375 332.415 221.76 332.009C222.167 331.623 222.659 331.431 223.173 331.431C223.708 331.431 224.179 331.623 224.564 332.009C227.132 334.599 228.845 337.766 229.679 341.512C230.514 345.493 230.364 349.089 229.166 352.256C228.16 355.039 226.576 357.286 224.393 358.934C222.21 360.646 219.62 361.631 216.709 361.931C216.088 361.995 215.468 362.016 214.825 362.016C211.658 362.016 208.811 361.374 206.285 360.09C203.589 358.827 201.191 357.051 199.115 354.76C197.061 352.427 195.627 349.838 194.835 346.991C194.043 344.059 193.979 341.234 194.642 338.43V338.258L194.728 338.087L194.792 337.852L194.877 337.681V337.574L194.963 337.445L195.027 337.252L195.134 336.867L195.263 336.461C195.455 335.84 195.841 335.048 196.397 334.085C197.51 332.073 198.709 330.832 200.014 330.318C200.549 330.125 201.042 330.125 201.513 330.339C202.005 330.553 202.347 330.917 202.604 331.431C202.797 331.944 202.775 332.437 202.54 332.929C202.304 333.464 201.941 333.828 201.448 334.021C200.999 334.213 200.442 334.898 199.8 336.075C199.158 337.21 198.709 338.258 198.495 339.264C197.981 341.683 198.045 343.888 198.666 345.985C199.287 348.232 200.421 350.287 202.069 352.149C203.888 354.183 206.071 355.745 208.64 356.837C211.187 357.885 213.755 358.271 216.324 357.971L216.302 358.014ZM210.138 328.242L209.624 327.792C209.196 327.45 208.982 327 208.94 326.487V326.315C208.94 325.738 209.111 325.309 209.453 324.967C209.796 324.582 210.245 324.389 210.802 324.368C211.315 324.368 211.829 324.56 212.343 324.967L213.691 326.101L214.183 326.487C214.611 326.872 214.868 327.3 214.932 327.792V328.113C214.954 328.563 214.761 329.012 214.419 329.419C214.033 329.826 213.563 330.018 212.985 330.018C212.621 330.018 212.236 329.89 211.829 329.633L210.117 328.242H210.138Z" fill="#1E1E1E"/>
<path d="M256.391 342.304C256.926 342.304 257.397 342.496 257.803 342.882C258.189 343.288 258.381 343.759 258.381 344.294C258.381 344.829 258.189 345.3 257.803 345.664C257.397 346.071 256.947 346.263 256.391 346.263H254.85C255.021 349.495 254.101 352.684 252.089 355.852C250.783 357.928 249.092 359.555 246.952 360.732C244.876 361.888 242.671 362.487 240.424 362.487C238.305 362.487 236.357 361.995 234.538 360.989C234.088 360.753 233.789 360.368 233.596 359.854C233.425 359.277 233.489 358.763 233.725 358.313C233.96 357.864 234.345 357.521 234.859 357.393C235.137 357.2 235.608 357.265 236.357 357.5C238.583 358.613 240.83 358.806 243.099 358.078C245.539 357.35 247.401 355.916 248.728 353.776C250.269 351.015 250.997 348.489 250.869 346.242H250.141L248.493 346.22H246.781C245.475 346.156 244.341 346.113 243.335 346.028C242.928 346.006 242.521 345.942 242.093 345.857L241.301 345.643L240.509 345.45C239.075 344.958 237.984 344.23 237.213 343.224C236.314 342.132 235.993 340.827 236.207 339.264C236.421 337.766 237.021 336.332 237.984 335.005C238.99 333.657 240.146 332.672 241.43 332.116C242.136 331.795 242.992 331.538 243.998 331.409C245.218 331.302 246.139 331.388 246.781 331.623C248.857 332.308 250.59 333.764 251.96 336.011C252.474 336.867 252.945 337.766 253.287 338.708C253.48 339.222 253.63 339.692 253.779 340.099L253.844 340.313L253.908 340.549L253.972 340.741L254.036 340.912L254.25 341.811L254.357 342.304H256.412H256.391ZM250.269 342.239L250.334 342.432L250.205 341.897L250.141 341.704L250.098 341.49L249.777 340.442C249.242 339.286 248.942 338.601 248.857 338.472C247.958 336.846 246.888 335.818 245.561 335.39C245.539 335.369 245.475 335.369 245.368 335.369C245.304 335.348 245.175 335.348 244.983 335.348C244.191 335.348 243.57 335.476 243.121 335.733C242.393 336.054 241.729 336.632 241.194 337.424C240.616 338.258 240.274 339.072 240.146 339.864C240.081 340.27 240.167 340.591 240.36 340.848C240.574 341.148 240.98 341.426 241.58 341.662C242.222 341.876 242.928 342.047 243.72 342.111C244.64 342.197 245.689 342.239 246.909 342.282H250.205L250.291 342.304L250.269 342.239Z" fill="#1E1E1E"/>
<path d="M264.717 342.304C265.23 342.304 265.701 342.496 266.086 342.903C266.472 343.288 266.664 343.738 266.664 344.294C266.664 344.851 266.472 345.3 266.086 345.664C265.68 346.071 265.23 346.263 264.717 346.263H256.476C255.941 346.263 255.47 346.071 255.064 345.664C254.678 345.279 254.486 344.829 254.486 344.294C254.486 343.759 254.678 343.288 255.064 342.903C255.47 342.496 255.941 342.304 256.476 342.304H264.717Z" fill="#1E1E1E"/>
<path d="M273 342.304C273.513 342.304 273.984 342.496 274.37 342.903C274.755 343.288 274.947 343.738 274.947 344.294C274.947 344.851 274.755 345.3 274.37 345.664C273.963 346.071 273.513 346.263 273 346.263H264.759C264.224 346.263 263.754 346.071 263.347 345.664C262.962 345.279 262.769 344.829 262.769 344.294C262.769 343.759 262.962 343.288 263.347 342.903C263.754 342.496 264.224 342.304 264.759 342.304H273Z" fill="#1E1E1E"/>
<path d="M281.283 342.304C281.796 342.304 282.267 342.496 282.653 342.903C283.038 343.288 283.231 343.738 283.231 344.294C283.231 344.851 283.038 345.3 282.653 345.664C282.246 346.071 281.796 346.263 281.283 346.263H273.042C272.507 346.263 272.037 346.071 271.63 345.664C271.245 345.279 271.052 344.829 271.052 344.294C271.052 343.759 271.245 343.288 271.63 342.903C272.037 342.496 272.507 342.304 273.042 342.304H281.283Z" fill="#1E1E1E"/>
<path d="M289.566 342.304C290.08 342.304 290.55 342.496 290.936 342.903C291.321 343.288 291.514 343.738 291.514 344.294C291.514 344.851 291.321 345.3 290.936 345.664C290.529 346.071 290.08 346.263 289.566 346.263H281.326C280.79 346.263 280.32 346.071 279.913 345.664C279.528 345.279 279.335 344.829 279.335 344.294C279.335 343.759 279.528 343.288 279.913 342.903C280.32 342.496 280.79 342.304 281.326 342.304H289.566Z" fill="#1E1E1E"/>
<path d="M296.115 340.078C296.522 339.05 296.65 337.937 296.501 336.782C296.372 335.134 295.923 333.528 295.238 331.966C295.002 331.452 295.002 330.96 295.238 330.446C295.43 329.954 295.773 329.611 296.329 329.355C296.843 329.162 297.335 329.183 297.828 329.419C298.341 329.611 298.684 329.954 298.876 330.468C299.69 332.437 300.203 334.277 300.417 335.99C300.717 338.109 300.482 340.056 299.69 341.833C298.684 343.759 296.971 345.043 294.553 345.685C292.477 346.049 290.807 346.22 289.544 346.22C289.009 346.22 288.539 346.028 288.132 345.621C287.747 345.236 287.554 344.787 287.554 344.251C287.554 343.716 287.747 343.245 288.132 342.839C288.539 342.454 289.031 342.261 289.544 342.261C290.85 342.261 292.198 342.132 293.632 341.833C294.895 341.533 295.751 340.955 296.158 340.078H296.115ZM289.437 324.047L289.159 323.833C288.731 323.426 288.517 322.998 288.474 322.484V322.313C288.474 321.821 288.646 321.393 288.967 320.986C289.266 320.579 289.716 320.387 290.315 320.365C290.764 320.365 291.214 320.494 291.578 320.772L292.22 321.264L292.819 321.778L293.825 322.57C294.253 322.869 294.531 323.298 294.638 323.833V324.175C294.66 324.646 294.51 325.074 294.189 325.481C293.847 325.909 293.354 326.123 292.734 326.123C292.22 326.123 291.599 325.823 290.914 325.245L289.416 324.025L289.437 324.047ZM290.764 318.204L290.251 317.754C289.823 317.39 289.609 316.962 289.566 316.448V316.277C289.566 315.699 289.737 315.271 290.08 314.929C290.443 314.544 290.871 314.351 291.428 314.33C291.942 314.33 292.455 314.522 292.969 314.929L294.317 316.063L294.81 316.448C295.238 316.834 295.495 317.262 295.559 317.754V318.075C295.58 318.525 295.388 318.974 295.045 319.381C294.66 319.787 294.168 319.98 293.611 319.98C293.269 319.98 292.862 319.852 292.455 319.595L290.743 318.225L290.764 318.204ZM296.094 324.303L295.58 323.854C295.152 323.512 294.938 323.062 294.895 322.548V322.377C294.895 321.799 295.067 321.371 295.409 321.029C295.751 320.644 296.201 320.451 296.757 320.429C297.271 320.429 297.785 320.622 298.298 321.029L299.647 322.163L300.139 322.548C300.567 322.934 300.824 323.362 300.888 323.854V324.175C300.91 324.646 300.717 325.074 300.375 325.481C299.989 325.887 299.518 326.08 298.941 326.08C298.577 326.08 298.191 325.952 297.785 325.695L296.073 324.303H296.094Z" fill="#1E1E1E"/>
<path d="M311.119 339.671C312.617 341.426 314.415 342.325 316.534 342.325C317.069 342.325 317.54 342.518 317.925 342.903C318.332 343.31 318.525 343.759 318.525 344.294C318.525 344.829 318.332 345.3 317.925 345.707C317.54 346.092 317.091 346.285 316.534 346.285C313.195 346.285 310.391 344.936 308.08 342.218C306.475 340.292 305.383 337.895 304.741 334.984C304.27 332.929 303.928 328.37 303.692 321.307C303.607 319.638 303.521 317.048 303.5 313.559C303.435 311.376 303.414 309.706 303.414 308.636C303.414 308.058 303.607 307.609 304.013 307.224C304.356 306.86 304.827 306.689 305.404 306.689C305.982 306.689 306.41 306.881 306.817 307.266C307.202 307.673 307.395 308.123 307.395 308.679V309.193C307.395 309.557 307.395 309.942 307.416 310.391V312.981L307.438 314.008C307.459 317.369 307.523 319.894 307.652 321.585C307.887 328.263 308.23 332.458 308.594 334.149C309.107 336.482 309.942 338.323 311.119 339.692V339.671Z" fill="#1E1E1E"/>
<path d="M324.753 342.304C325.267 342.304 325.737 342.496 326.123 342.903C326.508 343.288 326.701 343.738 326.701 344.294C326.701 344.851 326.508 345.3 326.123 345.664C325.716 346.071 325.267 346.263 324.753 346.263H316.513C315.978 346.263 315.507 346.071 315.1 345.664C314.715 345.279 314.522 344.829 314.522 344.294C314.522 343.759 314.715 343.288 315.1 342.903C315.507 342.496 315.978 342.304 316.513 342.304H324.753Z" fill="#1E1E1E"/>
<path d="M333.036 342.304C333.55 342.304 334.021 342.496 334.406 342.903C334.791 343.288 334.984 343.738 334.984 344.294C334.984 344.851 334.791 345.3 334.406 345.664C333.999 346.071 333.55 346.263 333.036 346.263H324.796C324.261 346.263 323.79 346.071 323.383 345.664C322.998 345.279 322.805 344.829 322.805 344.294C322.805 343.759 322.998 343.288 323.383 342.903C323.79 342.496 324.261 342.304 324.796 342.304H333.036Z" fill="#1E1E1E"/>
<path d="M341.319 342.304C341.833 342.304 342.304 342.496 342.689 342.903C343.074 343.288 343.267 343.738 343.267 344.294C343.267 344.851 343.074 345.3 342.689 345.664C342.282 346.071 341.833 346.263 341.319 346.263H333.079C332.544 346.263 332.073 346.071 331.666 345.664C331.281 345.279 331.088 344.829 331.088 344.294C331.088 343.759 331.281 343.288 331.666 342.903C332.073 342.496 332.544 342.304 333.079 342.304H341.319Z" fill="#1E1E1E"/>
<path d="M359.94 345.985C358.956 346.006 358.228 346.049 357.757 346.071C356.751 346.156 354.054 346.178 349.602 346.199L341.148 346.263C340.57 346.263 340.121 346.071 339.778 345.664C339.371 345.257 339.179 344.808 339.179 344.294C339.179 343.759 339.371 343.288 339.778 342.882C340.163 342.496 340.613 342.304 341.148 342.304H342.967C344.316 342.304 345.001 342.304 345.022 342.282H348.382L349.538 342.261C354.268 342.239 356.965 342.175 357.586 342.132C358.035 342.111 358.806 342.068 359.854 342.047H360.903L362.038 342.004H362.723L363.407 341.94H363.857L364.863 341.876C366.639 341.79 367.902 341.64 368.608 341.383C371.476 340.805 372.996 339.864 373.189 338.494C373.274 337.659 373.125 336.996 372.782 336.482C372.482 335.754 372.033 335.176 371.369 334.727C370.749 334.277 369.914 333.935 368.844 333.785L368.416 333.721L368.031 333.657C367.71 333.635 367.431 333.593 367.239 333.571H366.447L365.633 333.507L364.841 333.443H363.429C362.744 333.421 362.123 333.421 361.567 333.443H359.833L358.078 333.528L355.103 333.593C353.07 333.614 351.143 333.571 349.388 333.421H349.089L348.725 333.4H348.318L347.89 333.336H347.655L347.376 333.293H347.162L346.991 333.207C346.199 333.079 345.578 332.843 345.086 332.522C344.144 331.944 343.652 331.088 343.631 329.933C343.609 329.526 343.631 329.098 343.716 328.627V328.499L343.952 327.621V327.493C344.872 324.004 346.691 320.729 349.431 317.668C349.774 317.262 350.244 317.026 350.758 316.984C351.293 316.962 351.764 317.091 352.171 317.412C352.62 317.818 352.877 318.289 352.898 318.824C352.92 319.274 352.791 319.745 352.47 320.194C350.095 322.912 348.553 325.673 347.804 328.499L347.74 328.627V328.734L347.676 328.862C347.655 329.055 347.612 329.162 347.59 329.226V329.312L347.569 329.44C347.548 329.462 347.548 329.44 347.548 329.376C347.462 329.29 347.569 329.29 347.869 329.312H348.147L348.382 329.376H348.896L349.11 329.44H349.688C351.336 329.569 353.091 329.633 355.017 329.611H356.473L357.928 329.547L359.469 329.483C359.469 329.483 359.876 329.462 360.668 329.462H361.503C362.123 329.44 362.765 329.44 363.45 329.462H364.199C364.991 329.462 365.355 329.462 365.398 329.483H365.762L366.211 329.547H366.661L367.153 329.611C367.602 329.611 367.838 329.611 367.859 329.633C368.48 329.697 369.079 329.761 369.7 329.868C371.262 330.168 372.568 330.682 373.617 331.474C374.666 332.266 375.543 333.293 376.207 334.577C376.934 336.182 377.191 337.616 376.999 338.901C376.613 341.854 374.516 343.823 370.642 344.872C369.208 345.257 367.453 345.514 365.334 345.685C364.734 345.707 364.242 345.75 363.9 345.771H363.215L362.594 345.835L361.203 345.899H359.854L359.94 345.985Z" fill="#1E1E1E"/>
<path d="M387.786 339.671C389.284 341.426 391.082 342.325 393.201 342.325C393.736 342.325 394.207 342.518 394.592 342.903C394.999 343.31 395.191 343.759 395.191 344.294C395.191 344.829 394.999 345.3 394.592 345.707C394.207 346.092 393.757 346.285 393.201 346.285C389.862 346.285 387.058 344.936 384.746 342.218C383.141 340.292 382.05 337.895 381.408 334.984C380.937 332.929 380.594 328.37 380.359 321.307C380.273 319.638 380.188 317.048 380.166 313.559C380.102 311.376 380.081 309.706 380.081 308.636C380.081 308.058 380.273 307.609 380.68 307.224C381.022 306.86 381.493 306.689 382.071 306.689C382.649 306.689 383.077 306.881 383.484 307.266C383.869 307.673 384.061 308.123 384.061 308.679V309.193C384.061 309.557 384.062 309.942 384.083 310.391V312.981L384.104 314.008C384.126 317.369 384.19 319.894 384.318 321.585C384.554 328.263 384.896 332.458 385.26 334.149C385.774 336.482 386.609 338.323 387.786 339.692V339.671Z" fill="#1E1E1E"/>
<path d="M401.42 342.304C401.934 342.304 402.404 342.496 402.79 342.903C403.175 343.288 403.368 343.738 403.368 344.294C403.368 344.851 403.175 345.3 402.79 345.664C402.383 346.071 401.934 346.263 401.42 346.263H393.18C392.644 346.263 392.174 346.071 391.767 345.664C391.382 345.279 391.189 344.829 391.189 344.294C391.189 343.759 391.382 343.288 391.767 342.903C392.174 342.496 392.644 342.304 393.18 342.304H401.42Z" fill="#1E1E1E"/>
<path d="M412.742 327.214L412.699 326.979L412.614 326.701L412.549 326.508L412.485 326.337L412.421 326.016L412.357 325.673L412.293 325.395V325.095C412.228 324.903 412.207 324.689 412.186 324.411C412.1 322.784 412.507 321.371 413.406 320.194C413.983 319.359 414.797 318.867 415.845 318.696C417.708 318.396 420.105 319.381 423.058 321.628C424.193 322.441 425.498 323.49 426.954 324.774C428.452 326.037 429.929 327.514 431.384 329.141C434.873 333.122 436.414 336.632 435.986 339.671C435.558 342.625 433.396 344.851 429.458 346.328C426.997 347.269 424.171 347.762 420.961 347.762C416.68 347.762 413.084 346.927 410.131 345.215C407.241 345.899 404.288 346.242 401.248 346.242C400.735 346.242 400.264 346.049 399.879 345.664C399.493 345.257 399.301 344.765 399.301 344.251C399.301 343.716 399.493 343.245 399.879 342.86C400.285 342.454 400.735 342.261 401.248 342.261C402.747 342.261 404.395 342.132 406.214 341.876C405.336 340.848 404.652 339.115 404.138 336.675C403.56 333.999 403.86 331.88 404.973 330.275C405.957 328.969 407.134 328.156 408.568 327.814C410.174 327.493 411.65 327.685 413.063 328.349C413.256 328.413 413.341 328.477 413.277 328.584C413.191 328.713 413.149 328.713 413.106 328.648L412.913 327.963L412.806 327.557L412.699 327.15L412.742 327.214ZM412.207 340.677C414.262 339.992 415.439 339.05 415.674 337.83C415.867 337.017 415.503 335.99 414.668 334.706C413.812 333.464 412.742 332.565 411.501 332.03C411.03 331.795 410.516 331.645 410.002 331.645C409.275 331.645 408.654 331.966 408.162 332.629C407.648 333.357 407.648 334.641 408.14 336.439C408.633 338.301 409.296 339.628 410.195 340.42C410.216 340.442 410.281 340.527 410.388 340.613C410.516 340.698 410.687 340.827 410.88 340.955H410.987L411.222 340.891L411.436 340.827L411.629 340.784C411.822 340.763 411.929 340.72 411.95 340.656H412.186L412.207 340.677ZM416.231 343.267C417.75 343.652 419.484 343.845 421.432 343.802C423.872 343.781 426.098 343.374 428.088 342.646C430.55 341.726 431.898 340.527 432.112 339.093C432.347 337.338 431.277 335.069 428.88 332.244C426.847 329.847 424.15 327.364 420.704 324.796C419.463 323.875 418.371 323.233 417.429 322.827C417.151 322.698 416.851 322.634 416.53 322.613H416.423C416.53 322.591 416.595 322.548 416.616 322.484C416.231 322.869 416.081 323.512 416.145 324.432L416.231 324.946V325.117L416.295 325.288C416.316 325.481 416.359 325.588 416.381 325.673L416.552 326.294L416.744 326.936C416.787 327.065 416.851 327.236 416.873 327.428L416.937 327.621L417.001 327.792V327.963L417.087 328.07L417.151 328.392C417.258 328.905 417.172 329.398 416.937 329.847C416.637 330.339 416.295 330.596 415.888 330.66C415.46 330.746 415.674 330.575 416.573 330.168C417.151 330.896 417.879 332.094 418.714 333.742C419.612 335.455 419.869 337.081 419.548 338.644C419.056 340.977 417.986 342.518 416.274 343.31L416.231 343.267Z" fill="#1E1E1E"/>
<path d="M570.356 333.678H465.651V336.889H570.356V333.678Z" fill="#1E1E1E"/>
</svg>
